<mxfile host="app.diagrams.net" modified="2021-03-23T16:25:40.211Z" agent="5.0 (Windows NT 10.0; Win64; x64) AppleWebKit/537.36 (KHTML, like Gecko) Chrome/89.0.4389.90 Safari/537.36" etag="5ZFpHibmJg2Cte2OFI7o" version="14.5.0" type="github">
  <diagram id="YpkhJxXbhVLvgbfbjZGf" name="Page-1">
    <mxGraphModel dx="852" dy="473" grid="1" gridSize="10" guides="1" tooltips="1" connect="1" arrows="1" fold="1" page="1" pageScale="1" pageWidth="1654" pageHeight="1169" math="0" shadow="0">
      <root>
        <mxCell id="0" />
        <mxCell id="1" parent="0" />
        <mxCell id="ihm3AJdE8n84Boce-SHu-1" value="Actor" style="shape=umlActor;verticalLabelPosition=bottom;verticalAlign=top;html=1;outlineConnect=0;" vertex="1" parent="1">
          <mxGeometry x="110" y="170" width="100" height="80" as="geometry" />
        </mxCell>
        <mxCell id="ihm3AJdE8n84Boce-SHu-2" value="Yaman" style="ellipse;whiteSpace=wrap;html=1;" vertex="1" parent="1">
          <mxGeometry x="250" y="170" width="110" height="70" as="geometry" />
        </mxCell>
        <mxCell id="ihm3AJdE8n84Boce-SHu-3" value="ServiÃ§o" style="ellipse;whiteSpace=wrap;html=1;" vertex="1" parent="1">
          <mxGeometry x="390" y="170" width="110" height="70" as="geometry" />
        </mxCell>
        <mxCell id="ihm3AJdE8n84Boce-SHu-4" value="Continuos Testing" style="ellipse;whiteSpace=wrap;html=1;" vertex="1" parent="1">
          <mxGeometry x="530" width="110" height="70" as="geometry" />
        </mxCell>
        <mxCell id="ihm3AJdE8n84Boce-SHu-5" value="SRE" style="ellipse;whiteSpace=wrap;html=1;" vertex="1" parent="1">
          <mxGeometry x="530" y="80" width="110" height="70" as="geometry" />
        </mxCell>
        <mxCell id="ihm3AJdE8n84Boce-SHu-6" value="AppSec" style="ellipse;whiteSpace=wrap;html=1;" vertex="1" parent="1">
          <mxGeometry x="530" y="160" width="110" height="70" as="geometry" />
        </mxCell>
        <mxCell id="ihm3AJdE8n84Boce-SHu-8" value="DevSecOps" style="ellipse;whiteSpace=wrap;html=1;" vertex="1" parent="1">
          <mxGeometry x="530" y="240" width="110" height="70" as="geometry" />
        </mxCell>
        <mxCell id="ihm3AJdE8n84Boce-SHu-9" value="Software Engineers" style="ellipse;whiteSpace=wrap;html=1;" vertex="1" parent="1">
          <mxGeometry x="530" y="320" width="110" height="70" as="geometry" />
        </mxCell>
      </root>
    </mxGraphModel>
  </diagram>
</mxfile>
